<svg width="34" height="20" viewBox="0 0 34 20" fill="none" xmlns="http://www.w3.org/2000/svg">
<path d="M33.6969 17.3032C33.6056 17.1502 33.0403 15.9219 30.3201 13.3972C27.4724 10.7535 27.8549 11.1828 31.2849 6.61154C33.3739 3.82759 34.2091 2.12746 33.9477 1.40066C33.6991 0.707857 32.1626 0.890621 32.1626 0.890621L27.0537 0.920373C27.0537 0.920373 26.6754 0.869369 26.3928 1.03726C26.1186 1.20302 25.9423 1.58555 25.9423 1.58555C25.9423 1.58555 25.1326 3.74045 24.053 5.57234C21.777 9.438 20.8653 9.64201 20.4934 9.40187C19.6284 8.84295 19.8452 7.15346 19.8452 5.95487C19.8452 2.20822 20.4126 0.646227 18.738 0.242448C18.1812 0.108563 17.7732 0.0193064 16.3514 0.00443034C14.528 -0.0146961 12.9831 0.0108058 12.1096 0.437962C11.5273 0.722733 11.0789 1.35816 11.3531 1.39428C11.691 1.43891 12.456 1.60042 12.8619 2.15296C13.3868 2.86489 13.3677 4.46726 13.3677 4.46726C13.3677 4.46726 13.6695 8.87696 12.6643 9.42525C11.9736 9.8014 11.0279 9.03422 8.99838 5.52559C7.95918 3.72983 7.17288 1.74281 7.17288 1.74281C7.17288 1.74281 7.02199 1.37303 6.7521 1.17539C6.42482 0.935249 5.96579 0.858743 5.96579 0.858743L1.10768 0.888496C1.10768 0.888496 0.378752 0.909747 0.110983 1.2264C-0.127035 1.50904 0.0918562 2.09133 0.0918562 2.09133C0.0918562 2.09133 3.89589 10.9894 8.20145 15.4756C12.1521 19.5877 16.6362 19.3179 16.6362 19.3179H18.6678C18.6678 19.3179 19.282 19.2498 19.5944 18.9119C19.8834 18.6017 19.8728 18.0194 19.8728 18.0194C19.8728 18.0194 19.8324 15.2928 21.099 14.8911C22.3465 14.4959 23.9489 17.5263 25.6469 18.6931C26.9305 19.575 27.9059 19.3816 27.9059 19.3816L32.4474 19.3179C32.4474 19.3179 34.8233 19.1712 33.6969 17.3032Z" fill="white"/>
</svg>
